<?xml version="1.0" encoding="UTF-8" standalone="no"?>
<!DOCTYPE svg PUBLIC "-//W3C//DTD SVG 1.1//EN"
 "http://www.w3.org/Graphics/SVG/1.1/DTD/svg11.dtd">
<!-- Generated by graphviz version 2.43.0 (0)
 -->
<!-- Title: models_diagram Pages: 1 -->
<svg width="1438pt" height="247pt"
 viewBox="0.00 0.00 1438.00 247.00" xmlns="http://www.w3.org/2000/svg" xmlns:xlink="http://www.w3.org/1999/xlink">
<g id="graph0" class="graph" transform="scale(1 1) rotate(0) translate(4 243)">
<title>models_diagram</title>
<polygon fill="transparent" stroke="transparent" points="-4,4 -4,-243 1434,-243 1434,4 -4,4"/>
<!-- Admin -->
<g id="node1" class="node">
<title>Admin</title>
<path fill="none" stroke="black" d="M12,-87.5C12,-87.5 413,-87.5 413,-87.5 419,-87.5 425,-93.5 425,-99.5 425,-99.5 425,-226.5 425,-226.5 425,-232.5 419,-238.5 413,-238.5 413,-238.5 12,-238.5 12,-238.5 6,-238.5 0,-232.5 0,-226.5 0,-226.5 0,-99.5 0,-99.5 0,-93.5 6,-87.5 12,-87.5"/>
<text text-anchor="middle" x="212.5" y="-223.3" font-family="Times,serif" font-size="14.00">Admin</text>
<polyline fill="none" stroke="black" points="0,-215.5 425,-215.5 "/>
<text text-anchor="start" x="8" y="-200.3" font-family="Times,serif" font-size="14.00">id :uuid</text>
<text text-anchor="start" x="8" y="-185.3" font-family="Times,serif" font-size="14.00">email :character varying</text>
<text text-anchor="start" x="8" y="-170.3" font-family="Times,serif" font-size="14.00">encrypted_password :character varying</text>
<text text-anchor="start" x="8" y="-155.3" font-family="Times,serif" font-size="14.00">reset_password_token :character varying</text>
<text text-anchor="start" x="8" y="-140.3" font-family="Times,serif" font-size="14.00">reset_password_sent_at :timestamp(6) without time zone</text>
<text text-anchor="start" x="8" y="-125.3" font-family="Times,serif" font-size="14.00">remember_created_at :timestamp(6) without time zone</text>
<text text-anchor="start" x="8" y="-110.3" font-family="Times,serif" font-size="14.00">created_at :timestamp(6) without time zone</text>
<text text-anchor="start" x="8" y="-95.3" font-family="Times,serif" font-size="14.00">updated_at :timestamp(6) without time zone</text>
</g>
<!-- ApplicationRecord -->
<g id="node2" class="node">
<title>ApplicationRecord</title>
<ellipse fill="none" stroke="black" cx="538.5" cy="-163" rx="95.58" ry="18"/>
<text text-anchor="middle" x="538.5" y="-159.3" font-family="Times,serif" font-size="14.00">ApplicationRecord</text>
</g>
<!-- Article -->
<g id="node3" class="node">
<title>Article</title>
<path fill="none" stroke="black" d="M664,-102.5C664,-102.5 975,-102.5 975,-102.5 981,-102.5 987,-108.5 987,-114.5 987,-114.5 987,-211.5 987,-211.5 987,-217.5 981,-223.5 975,-223.5 975,-223.5 664,-223.5 664,-223.5 658,-223.5 652,-217.5 652,-211.5 652,-211.5 652,-114.5 652,-114.5 652,-108.5 658,-102.5 664,-102.5"/>
<text text-anchor="middle" x="819.5" y="-208.3" font-family="Times,serif" font-size="14.00">Article</text>
<polyline fill="none" stroke="black" points="652,-200.5 987,-200.5 "/>
<text text-anchor="start" x="660" y="-185.3" font-family="Times,serif" font-size="14.00">id :uuid</text>
<text text-anchor="start" x="660" y="-170.3" font-family="Times,serif" font-size="14.00">title :character varying</text>
<text text-anchor="start" x="660" y="-155.3" font-family="Times,serif" font-size="14.00">body :text</text>
<text text-anchor="start" x="660" y="-140.3" font-family="Times,serif" font-size="14.00">created_at :timestamp(6) without time zone</text>
<text text-anchor="start" x="660" y="-125.3" font-family="Times,serif" font-size="14.00">updated_at :timestamp(6) without time zone</text>
<text text-anchor="start" x="660" y="-110.3" font-family="Times,serif" font-size="14.00">slug :character varying</text>
</g>
<!-- ActiveStorage::Attachment -->
<g id="node5" class="node">
<title>ActiveStorage::Attachment</title>
<ellipse fill="none" stroke="black" cx="690.5" cy="-18" rx="135.68" ry="18"/>
<text text-anchor="middle" x="690.5" y="-14.3" font-family="Times,serif" font-size="14.00">ActiveStorage::Attachment</text>
</g>
<!-- Article&#45;&gt;ActiveStorage::Attachment -->
<g id="edge1" class="edge">
<title>Article&#45;&gt;ActiveStorage::Attachment</title>
<path fill="none" stroke="#2f9ab8" d="M746.8,-94.94C738.67,-86.46 730.72,-77.7 723.5,-69 717.33,-61.55 711.28,-52.92 706.09,-44.94"/>
<polygon fill="#2f9ab8" stroke="#2f9ab8" points="747.01,-95.15 750.77,-105.45 750.5,-98.73 753.99,-102.31 753.99,-102.31 753.99,-102.31 750.5,-98.73 757.21,-99.17 747.01,-95.15 747.01,-95.15"/>
<polygon fill="#2f9ab8" stroke="#2f9ab8" points="705.98,-44.76 704.43,-33.91 703.3,-40.54 700.63,-36.31 700.63,-36.31 700.63,-36.31 703.3,-40.54 696.82,-38.72 705.98,-44.76 705.98,-44.76"/>
<text text-anchor="middle" x="812.5" y="-57.8" font-family="Times,serif" font-size="14.00">cover_image_attachment</text>
</g>
<!-- ActiveStorage::Blob -->
<g id="node6" class="node">
<title>ActiveStorage::Blob</title>
<ellipse fill="none" stroke="black" cx="947.5" cy="-18" rx="102.88" ry="18"/>
<text text-anchor="middle" x="947.5" y="-14.3" font-family="Times,serif" font-size="14.00">ActiveStorage::Blob</text>
</g>
<!-- Article&#45;&gt;ActiveStorage::Blob -->
<g id="edge2" class="edge">
<title>Article&#45;&gt;ActiveStorage::Blob</title>
<path fill="none" stroke="#d3033b" d="M879.89,-94.53C896.15,-76.37 912.72,-57.86 925.38,-43.71"/>
<polygon fill="#d3033b" stroke="#d3033b" points="879.71,-94.73 869.69,-99.18 876.38,-98.46 873.04,-102.18 873.04,-102.18 873.04,-102.18 876.38,-98.46 876.39,-105.18 879.71,-94.73 879.71,-94.73"/>
<polygon fill="#d3033b" stroke="#d3033b" points="925.69,-43.37 935.71,-38.92 929.02,-39.64 932.36,-35.92 932.36,-35.92 932.36,-35.92 929.02,-39.64 929,-32.92 925.69,-43.37 925.69,-43.37"/>
<text text-anchor="middle" x="976" y="-57.8" font-family="Times,serif" font-size="14.00">cover_image_blob</text>
</g>
<!-- User -->
<g id="node4" class="node">
<title>User</title>
<path fill="none" stroke="black" d="M1017,-87.5C1017,-87.5 1418,-87.5 1418,-87.5 1424,-87.5 1430,-93.5 1430,-99.5 1430,-99.5 1430,-226.5 1430,-226.5 1430,-232.5 1424,-238.5 1418,-238.5 1418,-238.5 1017,-238.5 1017,-238.5 1011,-238.5 1005,-232.5 1005,-226.5 1005,-226.5 1005,-99.5 1005,-99.5 1005,-93.5 1011,-87.5 1017,-87.5"/>
<text text-anchor="middle" x="1217.5" y="-223.3" font-family="Times,serif" font-size="14.00">User</text>
<polyline fill="none" stroke="black" points="1005,-215.5 1430,-215.5 "/>
<text text-anchor="start" x="1013" y="-200.3" font-family="Times,serif" font-size="14.00">id :uuid</text>
<text text-anchor="start" x="1013" y="-185.3" font-family="Times,serif" font-size="14.00">email :character varying</text>
<text text-anchor="start" x="1013" y="-170.3" font-family="Times,serif" font-size="14.00">encrypted_password :character varying</text>
<text text-anchor="start" x="1013" y="-155.3" font-family="Times,serif" font-size="14.00">reset_password_token :character varying</text>
<text text-anchor="start" x="1013" y="-140.3" font-family="Times,serif" font-size="14.00">reset_password_sent_at :timestamp(6) without time zone</text>
<text text-anchor="start" x="1013" y="-125.3" font-family="Times,serif" font-size="14.00">remember_created_at :timestamp(6) without time zone</text>
<text text-anchor="start" x="1013" y="-110.3" font-family="Times,serif" font-size="14.00">created_at :timestamp(6) without time zone</text>
<text text-anchor="start" x="1013" y="-95.3" font-family="Times,serif" font-size="14.00">updated_at :timestamp(6) without time zone</text>
</g>
</g>
</svg>
