<?xml version="1.0" encoding="UTF-8" standalone="no"?>
<!DOCTYPE svg PUBLIC "-//W3C//DTD SVG 1.1//EN"
 "http://www.w3.org/Graphics/SVG/1.1/DTD/svg11.dtd">
<!-- Generated by graphviz version 2.43.0 (0)
 -->
<!-- Title: models_diagram Pages: 1 -->
<svg width="1438pt" height="303pt"
 viewBox="0.00 0.00 1438.00 303.00" xmlns="http://www.w3.org/2000/svg" xmlns:xlink="http://www.w3.org/1999/xlink">
<g id="graph0" class="graph" transform="scale(1 1) rotate(0) translate(4 299)">
<title>models_diagram</title>
<polygon fill="transparent" stroke="transparent" points="-4,4 -4,-299 1434,-299 1434,4 -4,4"/>
<!-- Admin -->
<g id="node1" class="node">
<title>Admin</title>
<path fill="none" stroke="black" d="M12,-143.5C12,-143.5 413,-143.5 413,-143.5 419,-143.5 425,-149.5 425,-155.5 425,-155.5 425,-282.5 425,-282.5 425,-288.5 419,-294.5 413,-294.5 413,-294.5 12,-294.5 12,-294.5 6,-294.5 0,-288.5 0,-282.5 0,-282.5 0,-155.5 0,-155.5 0,-149.5 6,-143.5 12,-143.5"/>
<text text-anchor="middle" x="212.5" y="-279.3" font-family="Times,serif" font-size="14.00">Admin</text>
<polyline fill="none" stroke="black" points="0,-271.5 425,-271.5 "/>
<text text-anchor="start" x="8" y="-256.3" font-family="Times,serif" font-size="14.00">id :uuid</text>
<text text-anchor="start" x="8" y="-241.3" font-family="Times,serif" font-size="14.00">email :character varying</text>
<text text-anchor="start" x="8" y="-226.3" font-family="Times,serif" font-size="14.00">encrypted_password :character varying</text>
<text text-anchor="start" x="8" y="-211.3" font-family="Times,serif" font-size="14.00">reset_password_token :character varying</text>
<text text-anchor="start" x="8" y="-196.3" font-family="Times,serif" font-size="14.00">reset_password_sent_at :timestamp(6) without time zone</text>
<text text-anchor="start" x="8" y="-181.3" font-family="Times,serif" font-size="14.00">remember_created_at :timestamp(6) without time zone</text>
<text text-anchor="start" x="8" y="-166.3" font-family="Times,serif" font-size="14.00">created_at :timestamp(6) without time zone</text>
<text text-anchor="start" x="8" y="-151.3" font-family="Times,serif" font-size="14.00">updated_at :timestamp(6) without time zone</text>
</g>
<!-- ApplicationRecord -->
<g id="node2" class="node">
<title>ApplicationRecord</title>
<ellipse fill="none" stroke="black" cx="538.5" cy="-219" rx="95.58" ry="18"/>
<text text-anchor="middle" x="538.5" y="-215.3" font-family="Times,serif" font-size="14.00">ApplicationRecord</text>
</g>
<!-- Article -->
<g id="node3" class="node">
<title>Article</title>
<path fill="none" stroke="black" d="M664,-151C664,-151 975,-151 975,-151 981,-151 987,-157 987,-163 987,-163 987,-275 987,-275 987,-281 981,-287 975,-287 975,-287 664,-287 664,-287 658,-287 652,-281 652,-275 652,-275 652,-163 652,-163 652,-157 658,-151 664,-151"/>
<text text-anchor="middle" x="819.5" y="-271.8" font-family="Times,serif" font-size="14.00">Article</text>
<polyline fill="none" stroke="black" points="652,-264 987,-264 "/>
<text text-anchor="start" x="660" y="-248.8" font-family="Times,serif" font-size="14.00">id :uuid</text>
<text text-anchor="start" x="660" y="-233.8" font-family="Times,serif" font-size="14.00">title :character varying</text>
<text text-anchor="start" x="660" y="-218.8" font-family="Times,serif" font-size="14.00">body :text</text>
<text text-anchor="start" x="660" y="-203.8" font-family="Times,serif" font-size="14.00">created_at :timestamp(6) without time zone</text>
<text text-anchor="start" x="660" y="-188.8" font-family="Times,serif" font-size="14.00">updated_at :timestamp(6) without time zone</text>
<text text-anchor="start" x="660" y="-173.8" font-family="Times,serif" font-size="14.00">slug :character varying</text>
<text text-anchor="start" x="660" y="-158.8" font-family="Times,serif" font-size="14.00">category_id :uuid</text>
</g>
<!-- Category -->
<g id="node4" class="node">
<title>Category</title>
<path fill="none" stroke="black" d="M343,-0.5C343,-0.5 654,-0.5 654,-0.5 660,-0.5 666,-6.5 666,-12.5 666,-12.5 666,-79.5 666,-79.5 666,-85.5 660,-91.5 654,-91.5 654,-91.5 343,-91.5 343,-91.5 337,-91.5 331,-85.5 331,-79.5 331,-79.5 331,-12.5 331,-12.5 331,-6.5 337,-0.5 343,-0.5"/>
<text text-anchor="middle" x="498.5" y="-76.3" font-family="Times,serif" font-size="14.00">Category</text>
<polyline fill="none" stroke="black" points="331,-68.5 666,-68.5 "/>
<text text-anchor="start" x="339" y="-53.3" font-family="Times,serif" font-size="14.00">id :uuid</text>
<text text-anchor="start" x="339" y="-38.3" font-family="Times,serif" font-size="14.00">name :character varying</text>
<text text-anchor="start" x="339" y="-23.3" font-family="Times,serif" font-size="14.00">created_at :timestamp(6) without time zone</text>
<text text-anchor="start" x="339" y="-8.3" font-family="Times,serif" font-size="14.00">updated_at :timestamp(6) without time zone</text>
</g>
<!-- Article&#45;&gt;Category -->
<g id="edge1" class="edge">
<title>Article&#45;&gt;Category</title>
<path fill="none" stroke="#32a0c2" d="M684.3,-145.98C652.86,-129.23 620.1,-111.78 591,-96.28"/>
<polygon fill="#32a0c2" stroke="#32a0c2" points="684.73,-146.21 691.44,-154.88 689.14,-148.56 693.55,-150.91 693.55,-150.91 693.55,-150.91 689.14,-148.56 695.67,-146.94 684.73,-146.21 684.73,-146.21"/>
<polygon fill="#32a0c2" stroke="#32a0c2" points="590.92,-96.23 584.21,-87.56 586.5,-93.88 582.09,-91.53 582.09,-91.53 582.09,-91.53 586.5,-93.88 579.98,-95.5 590.92,-96.23 590.92,-96.23"/>
</g>
<!-- ActiveStorage::Attachment -->
<g id="node6" class="node">
<title>ActiveStorage::Attachment</title>
<ellipse fill="none" stroke="black" cx="819.5" cy="-46" rx="135.68" ry="18"/>
<text text-anchor="middle" x="819.5" y="-42.3" font-family="Times,serif" font-size="14.00">ActiveStorage::Attachment</text>
</g>
<!-- Article&#45;&gt;ActiveStorage::Attachment -->
<g id="edge2" class="edge">
<title>Article&#45;&gt;ActiveStorage::Attachment</title>
<path fill="none" stroke="#32ad8b" d="M819.5,-140.86C819.5,-117.07 819.5,-92.4 819.5,-74.33"/>
<polygon fill="#32ad8b" stroke="#32ad8b" points="819.5,-140.91 815,-150.91 819.5,-145.91 819.5,-150.91 819.5,-150.91 819.5,-150.91 819.5,-145.91 824,-150.91 819.5,-140.91 819.5,-140.91"/>
<polygon fill="#32ad8b" stroke="#32ad8b" points="819.5,-74.25 824,-64.25 819.5,-69.25 819.5,-64.25 819.5,-64.25 819.5,-64.25 819.5,-69.25 815,-64.25 819.5,-74.25 819.5,-74.25"/>
<text text-anchor="middle" x="908.5" y="-113.8" font-family="Times,serif" font-size="14.00">cover_image_attachment</text>
</g>
<!-- ActiveStorage::Blob -->
<g id="node7" class="node">
<title>ActiveStorage::Blob</title>
<ellipse fill="none" stroke="black" cx="1076.5" cy="-46" rx="102.88" ry="18"/>
<text text-anchor="middle" x="1076.5" y="-42.3" font-family="Times,serif" font-size="14.00">ActiveStorage::Blob</text>
</g>
<!-- Article&#45;&gt;ActiveStorage::Blob -->
<g id="edge3" class="edge">
<title>Article&#45;&gt;ActiveStorage::Blob</title>
<path fill="none" stroke="#395edb" d="M970.94,-145.67C981.53,-139.09 991.83,-132.18 1001.5,-125 1022.24,-109.6 1042.34,-88.24 1056.5,-71.77"/>
<polygon fill="#395edb" stroke="#395edb" points="970.92,-145.68 960.04,-147.04 966.65,-148.28 962.38,-150.88 962.38,-150.88 962.38,-150.88 966.65,-148.28 964.72,-154.72 970.92,-145.68 970.92,-145.68"/>
<polygon fill="#395edb" stroke="#395edb" points="1056.5,-71.76 1066.39,-67.02 1059.73,-67.94 1062.95,-64.12 1062.95,-64.12 1062.95,-64.12 1059.73,-67.94 1059.51,-61.22 1056.5,-71.76 1056.5,-71.76"/>
<text text-anchor="middle" x="1080" y="-113.8" font-family="Times,serif" font-size="14.00">cover_image_blob</text>
</g>
<!-- User -->
<g id="node5" class="node">
<title>User</title>
<path fill="none" stroke="black" d="M1017,-143.5C1017,-143.5 1418,-143.5 1418,-143.5 1424,-143.5 1430,-149.5 1430,-155.5 1430,-155.5 1430,-282.5 1430,-282.5 1430,-288.5 1424,-294.5 1418,-294.5 1418,-294.5 1017,-294.5 1017,-294.5 1011,-294.5 1005,-288.5 1005,-282.5 1005,-282.5 1005,-155.5 1005,-155.5 1005,-149.5 1011,-143.5 1017,-143.5"/>
<text text-anchor="middle" x="1217.5" y="-279.3" font-family="Times,serif" font-size="14.00">User</text>
<polyline fill="none" stroke="black" points="1005,-271.5 1430,-271.5 "/>
<text text-anchor="start" x="1013" y="-256.3" font-family="Times,serif" font-size="14.00">id :uuid</text>
<text text-anchor="start" x="1013" y="-241.3" font-family="Times,serif" font-size="14.00">email :character varying</text>
<text text-anchor="start" x="1013" y="-226.3" font-family="Times,serif" font-size="14.00">encrypted_password :character varying</text>
<text text-anchor="start" x="1013" y="-211.3" font-family="Times,serif" font-size="14.00">reset_password_token :character varying</text>
<text text-anchor="start" x="1013" y="-196.3" font-family="Times,serif" font-size="14.00">reset_password_sent_at :timestamp(6) without time zone</text>
<text text-anchor="start" x="1013" y="-181.3" font-family="Times,serif" font-size="14.00">remember_created_at :timestamp(6) without time zone</text>
<text text-anchor="start" x="1013" y="-166.3" font-family="Times,serif" font-size="14.00">created_at :timestamp(6) without time zone</text>
<text text-anchor="start" x="1013" y="-151.3" font-family="Times,serif" font-size="14.00">updated_at :timestamp(6) without time zone</text>
</g>
</g>
</svg>
