<?xml version="1.0" encoding="UTF-8" standalone="no"?>
<!DOCTYPE svg PUBLIC "-//W3C//DTD SVG 1.1//EN"
 "http://www.w3.org/Graphics/SVG/1.1/DTD/svg11.dtd">
<!-- Generated by graphviz version 2.43.0 (0)
 -->
<!-- Title: models_diagram Pages: 1 -->
<svg width="1557pt" height="597pt"
 viewBox="0.00 0.00 1557.00 597.00" xmlns="http://www.w3.org/2000/svg" xmlns:xlink="http://www.w3.org/1999/xlink">
<g id="graph0" class="graph" transform="scale(1 1) rotate(0) translate(4 593)">
<title>models_diagram</title>
<polygon fill="transparent" stroke="transparent" points="-4,4 -4,-593 1553,-593 1553,4 -4,4"/>
<!-- Admin -->
<g id="node1" class="node">
<title>Admin</title>
<path fill="none" stroke="black" d="M12,-422.5C12,-422.5 413,-422.5 413,-422.5 419,-422.5 425,-428.5 425,-434.5 425,-434.5 425,-576.5 425,-576.5 425,-582.5 419,-588.5 413,-588.5 413,-588.5 12,-588.5 12,-588.5 6,-588.5 0,-582.5 0,-576.5 0,-576.5 0,-434.5 0,-434.5 0,-428.5 6,-422.5 12,-422.5"/>
<text text-anchor="middle" x="212.5" y="-573.3" font-family="Times,serif" font-size="14.00">Admin</text>
<polyline fill="none" stroke="black" points="0,-565.5 425,-565.5 "/>
<text text-anchor="start" x="8" y="-550.3" font-family="Times,serif" font-size="14.00">id :uuid</text>
<text text-anchor="start" x="8" y="-535.3" font-family="Times,serif" font-size="14.00">email :character varying</text>
<text text-anchor="start" x="8" y="-520.3" font-family="Times,serif" font-size="14.00">encrypted_password :character varying</text>
<text text-anchor="start" x="8" y="-505.3" font-family="Times,serif" font-size="14.00">reset_password_token :character varying</text>
<text text-anchor="start" x="8" y="-490.3" font-family="Times,serif" font-size="14.00">reset_password_sent_at :timestamp(6) without time zone</text>
<text text-anchor="start" x="8" y="-475.3" font-family="Times,serif" font-size="14.00">remember_created_at :timestamp(6) without time zone</text>
<text text-anchor="start" x="8" y="-460.3" font-family="Times,serif" font-size="14.00">created_at :timestamp(6) without time zone</text>
<text text-anchor="start" x="8" y="-445.3" font-family="Times,serif" font-size="14.00">updated_at :timestamp(6) without time zone</text>
<text text-anchor="start" x="8" y="-430.3" font-family="Times,serif" font-size="14.00">name :character varying</text>
</g>
<!-- ApplicationRecord -->
<g id="node2" class="node">
<title>ApplicationRecord</title>
<ellipse fill="none" stroke="black" cx="538.5" cy="-505.5" rx="95.58" ry="18"/>
<text text-anchor="middle" x="538.5" y="-501.8" font-family="Times,serif" font-size="14.00">ApplicationRecord</text>
</g>
<!-- Article -->
<g id="node3" class="node">
<title>Article</title>
<path fill="none" stroke="black" d="M664,-430C664,-430 975,-430 975,-430 981,-430 987,-436 987,-442 987,-442 987,-569 987,-569 987,-575 981,-581 975,-581 975,-581 664,-581 664,-581 658,-581 652,-575 652,-569 652,-569 652,-442 652,-442 652,-436 658,-430 664,-430"/>
<text text-anchor="middle" x="819.5" y="-565.8" font-family="Times,serif" font-size="14.00">Article</text>
<polyline fill="none" stroke="black" points="652,-558 987,-558 "/>
<text text-anchor="start" x="660" y="-542.8" font-family="Times,serif" font-size="14.00">id :uuid</text>
<text text-anchor="start" x="660" y="-527.8" font-family="Times,serif" font-size="14.00">title :character varying</text>
<text text-anchor="start" x="660" y="-512.8" font-family="Times,serif" font-size="14.00">body :text</text>
<text text-anchor="start" x="660" y="-497.8" font-family="Times,serif" font-size="14.00">created_at :timestamp(6) without time zone</text>
<text text-anchor="start" x="660" y="-482.8" font-family="Times,serif" font-size="14.00">updated_at :timestamp(6) without time zone</text>
<text text-anchor="start" x="660" y="-467.8" font-family="Times,serif" font-size="14.00">slug :character varying</text>
<text text-anchor="start" x="660" y="-452.8" font-family="Times,serif" font-size="14.00">category_id :uuid</text>
<text text-anchor="start" x="660" y="-437.8" font-family="Times,serif" font-size="14.00">author_id :uuid</text>
</g>
<!-- Author -->
<g id="node4" class="node">
<title>Author</title>
<path fill="none" stroke="black" d="M664,-203.5C664,-203.5 975,-203.5 975,-203.5 981,-203.5 987,-209.5 987,-215.5 987,-215.5 987,-372.5 987,-372.5 987,-378.5 981,-384.5 975,-384.5 975,-384.5 664,-384.5 664,-384.5 658,-384.5 652,-378.5 652,-372.5 652,-372.5 652,-215.5 652,-215.5 652,-209.5 658,-203.5 664,-203.5"/>
<text text-anchor="middle" x="819.5" y="-369.3" font-family="Times,serif" font-size="14.00">Author</text>
<polyline fill="none" stroke="black" points="652,-361.5 987,-361.5 "/>
<text text-anchor="start" x="660" y="-346.3" font-family="Times,serif" font-size="14.00">id :uuid</text>
<text text-anchor="start" x="660" y="-331.3" font-family="Times,serif" font-size="14.00">name :character varying</text>
<text text-anchor="start" x="660" y="-316.3" font-family="Times,serif" font-size="14.00">description :text</text>
<text text-anchor="start" x="660" y="-301.3" font-family="Times,serif" font-size="14.00">facebook_profile_url :character varying</text>
<text text-anchor="start" x="660" y="-286.3" font-family="Times,serif" font-size="14.00">instagram_profile_url :character varying</text>
<text text-anchor="start" x="660" y="-271.3" font-family="Times,serif" font-size="14.00">twitter_profile_url :character varying</text>
<text text-anchor="start" x="660" y="-256.3" font-family="Times,serif" font-size="14.00">linkedin_profile_url :character varying</text>
<text text-anchor="start" x="660" y="-241.3" font-family="Times,serif" font-size="14.00">youtube_profile_url :character varying</text>
<text text-anchor="start" x="660" y="-226.3" font-family="Times,serif" font-size="14.00">created_at :timestamp(6) without time zone</text>
<text text-anchor="start" x="660" y="-211.3" font-family="Times,serif" font-size="14.00">updated_at :timestamp(6) without time zone</text>
</g>
<!-- Article&#45;&gt;Author -->
<g id="edge2" class="edge">
<title>Article&#45;&gt;Author</title>
<path fill="none" stroke="#d5d984" d="M819.5,-419.73C819.5,-411.55 819.5,-403.19 819.5,-394.87"/>
<polygon fill="#d5d984" stroke="#d5d984" points="819.5,-419.75 815,-429.75 819.5,-424.75 819.5,-429.75 819.5,-429.75 819.5,-429.75 819.5,-424.75 824,-429.75 819.5,-419.75 819.5,-419.75"/>
<polygon fill="#d5d984" stroke="#d5d984" points="819.5,-394.77 824,-384.77 819.5,-389.77 819.5,-384.77 819.5,-384.77 819.5,-384.77 819.5,-389.77 815,-384.77 819.5,-394.77 819.5,-394.77"/>
</g>
<!-- Category -->
<g id="node5" class="node">
<title>Category</title>
<path fill="none" stroke="black" d="M311,-241C311,-241 622,-241 622,-241 628,-241 634,-247 634,-253 634,-253 634,-335 634,-335 634,-341 628,-347 622,-347 622,-347 311,-347 311,-347 305,-347 299,-341 299,-335 299,-335 299,-253 299,-253 299,-247 305,-241 311,-241"/>
<text text-anchor="middle" x="466.5" y="-331.8" font-family="Times,serif" font-size="14.00">Category</text>
<polyline fill="none" stroke="black" points="299,-324 634,-324 "/>
<text text-anchor="start" x="307" y="-308.8" font-family="Times,serif" font-size="14.00">id :uuid</text>
<text text-anchor="start" x="307" y="-293.8" font-family="Times,serif" font-size="14.00">name :character varying</text>
<text text-anchor="start" x="307" y="-278.8" font-family="Times,serif" font-size="14.00">created_at :timestamp(6) without time zone</text>
<text text-anchor="start" x="307" y="-263.8" font-family="Times,serif" font-size="14.00">updated_at :timestamp(6) without time zone</text>
<text text-anchor="start" x="307" y="-248.8" font-family="Times,serif" font-size="14.00">description :text</text>
</g>
<!-- Article&#45;&gt;Category -->
<g id="edge1" class="edge">
<title>Article&#45;&gt;Category</title>
<path fill="none" stroke="#755708" d="M684.85,-424.59C644.31,-400.53 600.64,-374.61 563.1,-352.33"/>
<polygon fill="#755708" stroke="#755708" points="684.95,-424.65 691.26,-433.62 689.25,-427.2 693.55,-429.75 693.55,-429.75 693.55,-429.75 689.25,-427.2 695.85,-425.88 684.95,-424.65 684.95,-424.65"/>
<polygon fill="#755708" stroke="#755708" points="562.79,-352.15 556.48,-343.17 558.49,-349.59 554.19,-347.04 554.19,-347.04 554.19,-347.04 558.49,-349.59 551.89,-350.91 562.79,-352.15 562.79,-352.15"/>
</g>
<!-- Comment -->
<g id="node6" class="node">
<title>Comment</title>
<path fill="none" stroke="black" d="M1181,-233.5C1181,-233.5 1492,-233.5 1492,-233.5 1498,-233.5 1504,-239.5 1504,-245.5 1504,-245.5 1504,-342.5 1504,-342.5 1504,-348.5 1498,-354.5 1492,-354.5 1492,-354.5 1181,-354.5 1181,-354.5 1175,-354.5 1169,-348.5 1169,-342.5 1169,-342.5 1169,-245.5 1169,-245.5 1169,-239.5 1175,-233.5 1181,-233.5"/>
<text text-anchor="middle" x="1336.5" y="-339.3" font-family="Times,serif" font-size="14.00">Comment</text>
<polyline fill="none" stroke="black" points="1169,-331.5 1504,-331.5 "/>
<text text-anchor="start" x="1177" y="-316.3" font-family="Times,serif" font-size="14.00">id :uuid</text>
<text text-anchor="start" x="1177" y="-301.3" font-family="Times,serif" font-size="14.00">user_id :uuid</text>
<text text-anchor="start" x="1177" y="-286.3" font-family="Times,serif" font-size="14.00">article_id :uuid</text>
<text text-anchor="start" x="1177" y="-271.3" font-family="Times,serif" font-size="14.00">body :text</text>
<text text-anchor="start" x="1177" y="-256.3" font-family="Times,serif" font-size="14.00">created_at :timestamp(6) without time zone</text>
<text text-anchor="start" x="1177" y="-241.3" font-family="Times,serif" font-size="14.00">updated_at :timestamp(6) without time zone</text>
</g>
<!-- Article&#45;&gt;Comment -->
<g id="edge3" class="edge">
<title>Article&#45;&gt;Comment</title>
<path fill="none" stroke="#1e9eeb" d="M996.65,-445.65C1048.04,-427.41 1103.92,-406.44 1154.5,-385 1173.19,-377.08 1192.67,-368.17 1211.66,-359.11"/>
<polygon fill="#1e9eeb" stroke="#1e9eeb" points="996.54,-445.69 985.61,-444.78 991.82,-447.35 987.11,-449.02 987.11,-449.02 987.11,-449.02 991.82,-447.35 988.61,-453.26 996.54,-445.69 996.54,-445.69"/>
<polygon fill="#1e9eeb" stroke="#1e9eeb" points="1211.91,-358.99 1222.88,-358.72 1216.42,-356.82 1220.93,-354.66 1220.93,-354.66 1220.93,-354.66 1216.42,-356.82 1218.98,-350.6 1211.91,-358.99 1211.91,-358.99"/>
</g>
<!-- ActiveStorage::Attachment -->
<g id="node8" class="node">
<title>ActiveStorage::Attachment</title>
<ellipse fill="none" stroke="black" cx="290.5" cy="-76" rx="135.68" ry="18"/>
<text text-anchor="middle" x="290.5" y="-72.3" font-family="Times,serif" font-size="14.00">ActiveStorage::Attachment</text>
</g>
<!-- Article&#45;&gt;ActiveStorage::Attachment -->
<g id="edge4" class="edge">
<title>Article&#45;&gt;ActiveStorage::Attachment</title>
<path fill="none" stroke="#4da020" d="M659.81,-426.68C654.36,-424.97 648.91,-423.4 643.5,-422 586.15,-407.12 151.92,-428.33 111.5,-385 56.32,-325.85 74.24,-274.8 111.5,-203 138,-151.93 195.76,-117.2 238.54,-97.34"/>
<polygon fill="#4da020" stroke="#4da020" points="660.13,-426.78 668.24,-434.16 664.88,-428.33 669.64,-429.88 669.64,-429.88 669.64,-429.88 664.88,-428.33 671.03,-425.61 660.13,-426.78 660.13,-426.78"/>
<polygon fill="#4da020" stroke="#4da020" points="238.58,-97.32 249.54,-97.31 243.14,-95.27 247.69,-93.21 247.69,-93.21 247.69,-93.21 243.14,-95.27 245.84,-89.11 238.58,-97.32 238.58,-97.32"/>
<text text-anchor="middle" x="200.5" y="-290.3" font-family="Times,serif" font-size="14.00">cover_image_attachment</text>
</g>
<!-- ActiveStorage::Blob -->
<g id="node9" class="node">
<title>ActiveStorage::Blob</title>
<ellipse fill="none" stroke="black" cx="849.5" cy="-76" rx="102.88" ry="18"/>
<text text-anchor="middle" x="849.5" y="-72.3" font-family="Times,serif" font-size="14.00">ActiveStorage::Blob</text>
</g>
<!-- Article&#45;&gt;ActiveStorage::Blob -->
<g id="edge5" class="edge">
<title>Article&#45;&gt;ActiveStorage::Blob</title>
<path fill="none" stroke="#e77e2a" d="M967.43,-422.53C978.51,-411.28 988.2,-398.79 995.5,-385 1033.37,-313.52 1018.12,-280.66 995.5,-203 981.17,-153.81 931.8,-118.4 894.41,-97.88"/>
<polygon fill="#e77e2a" stroke="#e77e2a" points="967.15,-422.8 956.83,-426.5 963.55,-426.27 959.95,-429.74 959.95,-429.74 959.95,-429.74 963.55,-426.27 963.08,-432.98 967.15,-422.8 967.15,-422.8"/>
<polygon fill="#e77e2a" stroke="#e77e2a" points="894.02,-97.67 887.3,-89.01 889.6,-95.33 885.19,-92.98 885.19,-92.98 885.19,-92.98 889.6,-95.33 883.08,-96.96 894.02,-97.67 894.02,-97.67"/>
<text text-anchor="middle" x="1083" y="-290.3" font-family="Times,serif" font-size="14.00">cover_image_blob</text>
</g>
<!-- Author&#45;&gt;ActiveStorage::Attachment -->
<g id="edge6" class="edge">
<title>Author&#45;&gt;ActiveStorage::Attachment</title>
<path fill="none" stroke="#7f9bc1" d="M666.65,-198.07C641.85,-182.87 623.02,-171.54 619.5,-170 538.42,-134.43 440.13,-108.74 372.21,-93.49"/>
<polygon fill="#7f9bc1" stroke="#7f9bc1" points="666.75,-198.14 672.92,-207.2 671.02,-200.75 675.28,-203.37 675.28,-203.37 675.28,-203.37 671.02,-200.75 677.63,-199.53 666.75,-198.14 666.75,-198.14"/>
<polygon fill="#7f9bc1" stroke="#7f9bc1" points="372.18,-93.48 363.39,-86.92 367.3,-92.4 362.42,-91.31 362.42,-91.31 362.42,-91.31 367.3,-92.4 361.44,-95.71 372.18,-93.48 372.18,-93.48"/>
<text text-anchor="middle" x="738" y="-173.8" font-family="Times,serif" font-size="14.00">avatar_image_attachment</text>
</g>
<!-- Author&#45;&gt;ActiveStorage::Blob -->
<g id="edge7" class="edge">
<title>Author&#45;&gt;ActiveStorage::Blob</title>
<path fill="none" stroke="#fc4483" d="M833.36,-193.17C837.88,-160.65 842.54,-127.14 845.68,-104.51"/>
<polygon fill="#fc4483" stroke="#fc4483" points="833.34,-193.37 827.5,-202.65 832.65,-198.32 831.96,-203.27 831.96,-203.27 831.96,-203.27 832.65,-198.32 836.42,-203.89 833.34,-193.37 833.34,-193.37"/>
<polygon fill="#fc4483" stroke="#fc4483" points="845.72,-104.24 851.55,-94.95 846.4,-99.29 847.09,-94.33 847.09,-94.33 847.09,-94.33 846.4,-99.29 842.64,-93.71 845.72,-104.24 845.72,-104.24"/>
<text text-anchor="middle" x="903.5" y="-173.8" font-family="Times,serif" font-size="14.00">avatar_image_blob</text>
</g>
<!-- Category&#45;&gt;ActiveStorage::Attachment -->
<g id="edge8" class="edge">
<title>Category&#45;&gt;ActiveStorage::Attachment</title>
<path fill="none" stroke="#115fbf" d="M336.81,-234.72C318.69,-221.01 302.53,-204.55 291.5,-185 277.58,-160.33 279.74,-127.16 283.85,-104.12"/>
<polygon fill="#115fbf" stroke="#115fbf" points="337.15,-234.97 342.62,-244.48 341.21,-237.9 345.26,-240.83 345.26,-240.83 345.26,-240.83 341.21,-237.9 347.89,-237.18 337.15,-234.97 337.15,-234.97"/>
<polygon fill="#115fbf" stroke="#115fbf" points="283.91,-103.81 290.31,-94.9 284.91,-98.91 285.9,-94.01 285.9,-94.01 285.9,-94.01 284.91,-98.91 281.48,-93.12 283.91,-103.81 283.91,-103.81"/>
<text text-anchor="middle" x="380.5" y="-173.8" font-family="Times,serif" font-size="14.00">cover_image_attachment</text>
</g>
<!-- Category&#45;&gt;ActiveStorage::Blob -->
<g id="edge9" class="edge">
<title>Category&#45;&gt;ActiveStorage::Blob</title>
<path fill="none" stroke="#defacb" d="M466.69,-230.69C469.84,-209.04 477.08,-186.15 492.5,-170 529.09,-131.67 667.53,-104.04 760.87,-89.28"/>
<polygon fill="#defacb" stroke="#defacb" points="466.66,-230.93 461.02,-240.33 466.08,-235.89 465.49,-240.86 465.49,-240.86 465.49,-240.86 466.08,-235.89 469.96,-241.39 466.66,-230.93 466.66,-230.93"/>
<polygon fill="#defacb" stroke="#defacb" points="761,-89.26 771.58,-92.17 765.94,-88.49 770.88,-87.72 770.88,-87.72 770.88,-87.72 765.94,-88.49 770.19,-83.28 761,-89.26 761,-89.26"/>
<text text-anchor="middle" x="556" y="-173.8" font-family="Times,serif" font-size="14.00">cover_image_blob</text>
</g>
<!-- User -->
<g id="node7" class="node">
<title>User</title>
<path fill="none" stroke="black" d="M1136,-0.5C1136,-0.5 1537,-0.5 1537,-0.5 1543,-0.5 1549,-6.5 1549,-12.5 1549,-12.5 1549,-139.5 1549,-139.5 1549,-145.5 1543,-151.5 1537,-151.5 1537,-151.5 1136,-151.5 1136,-151.5 1130,-151.5 1124,-145.5 1124,-139.5 1124,-139.5 1124,-12.5 1124,-12.5 1124,-6.5 1130,-0.5 1136,-0.5"/>
<text text-anchor="middle" x="1336.5" y="-136.3" font-family="Times,serif" font-size="14.00">User</text>
<polyline fill="none" stroke="black" points="1124,-128.5 1549,-128.5 "/>
<text text-anchor="start" x="1132" y="-113.3" font-family="Times,serif" font-size="14.00">id :uuid</text>
<text text-anchor="start" x="1132" y="-98.3" font-family="Times,serif" font-size="14.00">email :character varying</text>
<text text-anchor="start" x="1132" y="-83.3" font-family="Times,serif" font-size="14.00">encrypted_password :character varying</text>
<text text-anchor="start" x="1132" y="-68.3" font-family="Times,serif" font-size="14.00">reset_password_token :character varying</text>
<text text-anchor="start" x="1132" y="-53.3" font-family="Times,serif" font-size="14.00">reset_password_sent_at :timestamp(6) without time zone</text>
<text text-anchor="start" x="1132" y="-38.3" font-family="Times,serif" font-size="14.00">remember_created_at :timestamp(6) without time zone</text>
<text text-anchor="start" x="1132" y="-23.3" font-family="Times,serif" font-size="14.00">created_at :timestamp(6) without time zone</text>
<text text-anchor="start" x="1132" y="-8.3" font-family="Times,serif" font-size="14.00">updated_at :timestamp(6) without time zone</text>
</g>
<!-- Comment&#45;&gt;User -->
<g id="edge10" class="edge">
<title>Comment&#45;&gt;User</title>
<path fill="none" stroke="#3881d4" d="M1336.5,-223.14C1336.5,-203.65 1336.5,-182.25 1336.5,-162"/>
<polygon fill="#3881d4" stroke="#3881d4" points="1336.5,-223.41 1332,-233.41 1336.5,-228.41 1336.5,-233.41 1336.5,-233.41 1336.5,-233.41 1336.5,-228.41 1341,-233.41 1336.5,-223.41 1336.5,-223.41"/>
<polygon fill="#3881d4" stroke="#3881d4" points="1336.5,-161.84 1341,-151.84 1336.5,-156.84 1336.5,-151.84 1336.5,-151.84 1336.5,-151.84 1336.5,-156.84 1332,-151.84 1336.5,-161.84 1336.5,-161.84"/>
</g>
</g>
</svg>
