<svg xmlns="http://www.w3.org/2000/svg" width="12.586" height="23.5" viewBox="0 0 23 24">
  <path d="M20.447 20.452h-3.554v-5.569c0-1.328-.026-3.037-1.852-3.037-1.853 0-2.137 1.446-2.137 2.941v5.665h-3.554V9h3.414v1.561h.049c.475-.898 1.635-1.848 3.366-1.848 3.6 0 4.266 2.369 4.266 5.455v6.283zM5.337 7.433c-1.145 0-2.073-.927-2.073-2.073 0-1.145.927-2.073 2.073-2.073 1.145 0 2.073.927 2.073 2.073 0 1.145-.927 2.073-2.073 2.073zm1.778 13.019H3.56V9h3.556v11.452zM22.225 0H1.771C.792 0 0 .792 0 1.771v20.457C0 23.208.792 24 1.771 24h20.457C23.208 24 24 23.208 24 22.229V1.771C24 .792 23.208 0 22.225 0z" fill="#c00"/>
</svg>
